<svg width="481" height="133" viewBox="0 0 481 133" fill="none" xmlns="http://www.w3.org/2000/svg">
<g filter="url(#filter0_d_174_21)">
<mask id="path-1-outside-1_174_21" maskUnits="userSpaceOnUse" x="6" y="6" width="469" height="121" fill="black">
<rect fill="white" x="6" y="6" width="469" height="121"/>
<path d="M40.8594 10.7V24.5H26.8594V109H40.8594V122.9H10.8594V10.7H40.8594ZM111.536 54.4C111.536 58.4667 110.603 62.2 108.736 65.6C106.869 68.9333 104.003 71.6333 100.136 73.7C96.2693 75.7667 91.4693 76.8 85.7359 76.8H75.1359V102H58.0359V31.8H85.7359C91.3359 31.8 96.0693 32.7667 99.9359 34.7C103.803 36.6333 106.703 39.3 108.636 42.7C110.569 46.1 111.536 50 111.536 54.4ZM84.4359 63.2C87.7026 63.2 90.1359 62.4333 91.7359 60.9C93.3359 59.3667 94.1359 57.2 94.1359 54.4C94.1359 51.6 93.3359 49.4333 91.7359 47.9C90.1359 46.3667 87.7026 45.6 84.4359 45.6H75.1359V63.2H84.4359ZM182.638 31.8L158.338 78.8V102H141.238V78.8L116.938 31.8H136.338L149.938 61.2L163.438 31.8H182.638ZM195.428 31.8H212.928L201.728 58.6H190.228L195.428 31.8ZM278.473 54.4C278.473 58.4667 277.54 62.2 275.673 65.6C273.807 68.9333 270.94 71.6333 267.073 73.7C263.207 75.7667 258.407 76.8 252.673 76.8H242.073V102H224.973V31.8H252.673C258.273 31.8 263.007 32.7667 266.873 34.7C270.74 36.6333 273.64 39.3 275.573 42.7C277.507 46.1 278.473 50 278.473 54.4ZM251.373 63.2C254.64 63.2 257.073 62.4333 258.673 60.9C260.273 59.3667 261.073 57.2 261.073 54.4C261.073 51.6 260.273 49.4333 258.673 47.9C257.073 46.3667 254.64 45.6 251.373 45.6H242.073V63.2H251.373ZM325.176 102L310.576 75.5H306.476V102H289.376V31.8H318.076C323.609 31.8 328.309 32.7667 332.176 34.7C336.109 36.6333 339.042 39.3 340.976 42.7C342.909 46.0333 343.876 49.7667 343.876 53.9C343.876 58.5667 342.542 62.7333 339.876 66.4C337.276 70.0667 333.409 72.6667 328.276 74.2L344.476 102H325.176ZM306.476 63.4H317.076C320.209 63.4 322.542 62.6333 324.076 61.1C325.676 59.5667 326.476 57.4 326.476 54.6C326.476 51.9333 325.676 49.8333 324.076 48.3C322.542 46.7667 320.209 46 317.076 46H306.476V63.4ZM389.81 102.7C383.21 102.7 377.143 101.167 371.61 98.1C366.143 95.0333 361.777 90.7667 358.51 85.3C355.31 79.7667 353.71 73.5667 353.71 66.7C353.71 59.8333 355.31 53.6667 358.51 48.2C361.777 42.7333 366.143 38.4667 371.61 35.4C377.143 32.3333 383.21 30.8 389.81 30.8C396.41 30.8 402.443 32.3333 407.91 35.4C413.443 38.4667 417.777 42.7333 420.91 48.2C424.11 53.6667 425.71 59.8333 425.71 66.7C425.71 73.5667 424.11 79.7667 420.91 85.3C417.71 90.7667 413.377 95.0333 407.91 98.1C402.443 101.167 396.41 102.7 389.81 102.7ZM389.81 87.1C395.41 87.1 399.877 85.2333 403.21 81.5C406.61 77.7667 408.31 72.8333 408.31 66.7C408.31 60.5 406.61 55.5667 403.21 51.9C399.877 48.1667 395.41 46.3 389.81 46.3C384.143 46.3 379.61 48.1333 376.21 51.8C372.877 55.4667 371.21 60.4333 371.21 66.7C371.21 72.9 372.877 77.8667 376.21 81.6C379.61 85.2667 384.143 87.1 389.81 87.1ZM470.023 122.9H440.023V109H454.023V24.5H440.023V10.7H470.023V122.9Z"/>
</mask>
<path d="M40.8594 10.7V24.5H26.8594V109H40.8594V122.9H10.8594V10.7H40.8594ZM111.536 54.4C111.536 58.4667 110.603 62.2 108.736 65.6C106.869 68.9333 104.003 71.6333 100.136 73.7C96.2693 75.7667 91.4693 76.8 85.7359 76.8H75.1359V102H58.0359V31.8H85.7359C91.3359 31.8 96.0693 32.7667 99.9359 34.7C103.803 36.6333 106.703 39.3 108.636 42.7C110.569 46.1 111.536 50 111.536 54.4ZM84.4359 63.2C87.7026 63.2 90.1359 62.4333 91.7359 60.9C93.3359 59.3667 94.1359 57.2 94.1359 54.4C94.1359 51.6 93.3359 49.4333 91.7359 47.9C90.1359 46.3667 87.7026 45.6 84.4359 45.6H75.1359V63.2H84.4359ZM182.638 31.8L158.338 78.8V102H141.238V78.8L116.938 31.8H136.338L149.938 61.2L163.438 31.8H182.638ZM195.428 31.8H212.928L201.728 58.6H190.228L195.428 31.8ZM278.473 54.4C278.473 58.4667 277.54 62.2 275.673 65.6C273.807 68.9333 270.94 71.6333 267.073 73.7C263.207 75.7667 258.407 76.8 252.673 76.8H242.073V102H224.973V31.8H252.673C258.273 31.8 263.007 32.7667 266.873 34.7C270.74 36.6333 273.64 39.3 275.573 42.7C277.507 46.1 278.473 50 278.473 54.4ZM251.373 63.2C254.64 63.2 257.073 62.4333 258.673 60.9C260.273 59.3667 261.073 57.2 261.073 54.4C261.073 51.6 260.273 49.4333 258.673 47.9C257.073 46.3667 254.64 45.6 251.373 45.6H242.073V63.2H251.373ZM325.176 102L310.576 75.5H306.476V102H289.376V31.8H318.076C323.609 31.8 328.309 32.7667 332.176 34.7C336.109 36.6333 339.042 39.3 340.976 42.7C342.909 46.0333 343.876 49.7667 343.876 53.9C343.876 58.5667 342.542 62.7333 339.876 66.4C337.276 70.0667 333.409 72.6667 328.276 74.2L344.476 102H325.176ZM306.476 63.4H317.076C320.209 63.4 322.542 62.6333 324.076 61.1C325.676 59.5667 326.476 57.4 326.476 54.6C326.476 51.9333 325.676 49.8333 324.076 48.3C322.542 46.7667 320.209 46 317.076 46H306.476V63.4ZM389.81 102.7C383.21 102.7 377.143 101.167 371.61 98.1C366.143 95.0333 361.777 90.7667 358.51 85.3C355.31 79.7667 353.71 73.5667 353.71 66.7C353.71 59.8333 355.31 53.6667 358.51 48.2C361.777 42.7333 366.143 38.4667 371.61 35.4C377.143 32.3333 383.21 30.8 389.81 30.8C396.41 30.8 402.443 32.3333 407.91 35.4C413.443 38.4667 417.777 42.7333 420.91 48.2C424.11 53.6667 425.71 59.8333 425.71 66.7C425.71 73.5667 424.11 79.7667 420.91 85.3C417.71 90.7667 413.377 95.0333 407.91 98.1C402.443 101.167 396.41 102.7 389.81 102.7ZM389.81 87.1C395.41 87.1 399.877 85.2333 403.21 81.5C406.61 77.7667 408.31 72.8333 408.31 66.7C408.31 60.5 406.61 55.5667 403.21 51.9C399.877 48.1667 395.41 46.3 389.81 46.3C384.143 46.3 379.61 48.1333 376.21 51.8C372.877 55.4667 371.21 60.4333 371.21 66.7C371.21 72.9 372.877 77.8667 376.21 81.6C379.61 85.2667 384.143 87.1 389.81 87.1ZM470.023 122.9H440.023V109H454.023V24.5H440.023V10.7H470.023V122.9Z" fill="#038AB2"/>
<path d="M40.8594 10.7H44.8594V6.7H40.8594V10.7ZM40.8594 24.5V28.5H44.8594V24.5H40.8594ZM26.8594 24.5V20.5H22.8594V24.5H26.8594ZM26.8594 109H22.8594V113H26.8594V109ZM40.8594 109H44.8594V105H40.8594V109ZM40.8594 122.9V126.9H44.8594V122.9H40.8594ZM10.8594 122.9H6.85938V126.9H10.8594V122.9ZM10.8594 10.7V6.7H6.85938V10.7H10.8594ZM36.8594 10.7V24.5H44.8594V10.7H36.8594ZM40.8594 20.5H26.8594V28.5H40.8594V20.5ZM22.8594 24.5V109H30.8594V24.5H22.8594ZM26.8594 113H40.8594V105H26.8594V113ZM36.8594 109V122.9H44.8594V109H36.8594ZM40.8594 118.9H10.8594V126.9H40.8594V118.9ZM14.8594 122.9V10.7H6.85938V122.9H14.8594ZM10.8594 14.7H40.8594V6.7H10.8594V14.7ZM108.736 65.6L112.226 67.5544L112.234 67.5398L112.242 67.525L108.736 65.6ZM100.136 73.7L98.2504 70.1723L100.136 73.7ZM75.1359 76.8V72.8H71.1359V76.8H75.1359ZM75.1359 102V106H79.1359V102H75.1359ZM58.0359 102H54.0359V106H58.0359V102ZM58.0359 31.8V27.8H54.0359V31.8H58.0359ZM99.9359 34.7L101.725 31.1223L99.9359 34.7ZM75.1359 45.6V41.6H71.1359V45.6H75.1359ZM75.1359 63.2H71.1359V67.2H75.1359V63.2ZM107.536 54.4C107.536 57.8275 106.757 60.8938 105.23 63.675L112.242 67.525C114.449 63.5062 115.536 59.1059 115.536 54.4H107.536ZM105.246 63.6456C103.805 66.2178 101.545 68.4115 98.2504 70.1723L102.021 77.2277C106.46 74.8552 109.933 71.6489 112.226 67.5544L105.246 63.6456ZM98.2504 70.1723C95.1149 71.8481 91.0072 72.8 85.7359 72.8V80.8C91.9313 80.8 97.4236 79.6852 102.021 77.2277L98.2504 70.1723ZM85.7359 72.8H75.1359V80.8H85.7359V72.8ZM71.1359 76.8V102H79.1359V76.8H71.1359ZM75.1359 98H58.0359V106H75.1359V98ZM62.0359 102V31.8H54.0359V102H62.0359ZM58.0359 35.8H85.7359V27.8H58.0359V35.8ZM85.7359 35.8C90.8921 35.8 94.9751 36.6917 98.1471 38.2777L101.725 31.1223C97.1635 28.8416 91.7798 27.8 85.7359 27.8V35.8ZM98.1471 38.2777C101.383 39.8954 103.658 42.038 105.159 44.6772L112.113 40.7228C109.747 36.562 106.223 33.3712 101.725 31.1223L98.1471 38.2777ZM105.159 44.6772C106.708 47.4022 107.536 50.6049 107.536 54.4H115.536C115.536 49.3951 114.43 44.7978 112.113 40.7228L105.159 44.6772ZM84.4359 67.2C88.2506 67.2 91.8708 66.311 94.5036 63.7879L88.9683 58.012C88.4011 58.5557 87.1546 59.2 84.4359 59.2V67.2ZM94.5036 63.7879C97.0864 61.3127 98.1359 57.986 98.1359 54.4H90.1359C90.1359 56.414 89.5854 57.4206 88.9683 58.012L94.5036 63.7879ZM98.1359 54.4C98.1359 50.814 97.0864 47.4873 94.5036 45.012L88.9683 50.788C89.5854 51.3794 90.1359 52.386 90.1359 54.4H98.1359ZM94.5036 45.012C91.8708 42.489 88.2506 41.6 84.4359 41.6V49.6C87.1546 49.6 88.4011 50.2443 88.9683 50.788L94.5036 45.012ZM84.4359 41.6H75.1359V49.6H84.4359V41.6ZM71.1359 45.6V63.2H79.1359V45.6H71.1359ZM75.1359 67.2H84.4359V59.2H75.1359V67.2ZM182.638 31.8L186.191 33.6371L189.209 27.8H182.638V31.8ZM158.338 78.8L154.785 76.9629L154.338 77.8271V78.8H158.338ZM158.338 102V106H162.338V102H158.338ZM141.238 102H137.238V106H141.238V102ZM141.238 78.8H145.238V77.8271L144.791 76.9629L141.238 78.8ZM116.938 31.8V27.8H110.367L113.385 33.6371L116.938 31.8ZM136.338 31.8L139.969 30.1206L138.895 27.8H136.338V31.8ZM149.938 61.2L146.308 62.8794L149.952 70.7564L153.573 62.8692L149.938 61.2ZM163.438 31.8V27.8H160.873L159.803 30.1308L163.438 31.8ZM179.085 29.9629L154.785 76.9629L161.891 80.6371L186.191 33.6371L179.085 29.9629ZM154.338 78.8V102H162.338V78.8H154.338ZM158.338 98H141.238V106H158.338V98ZM145.238 102V78.8H137.238V102H145.238ZM144.791 76.9629L120.491 29.9629L113.385 33.6371L137.685 80.6371L144.791 76.9629ZM116.938 35.8H136.338V27.8H116.938V35.8ZM132.708 33.4794L146.308 62.8794L153.569 59.5206L139.969 30.1206L132.708 33.4794ZM153.573 62.8692L167.073 33.4692L159.803 30.1308L146.303 59.5308L153.573 62.8692ZM163.438 35.8H182.638V27.8H163.438V35.8ZM195.428 31.8V27.8H192.13L191.501 31.0381L195.428 31.8ZM212.928 31.8L216.619 33.3424L218.935 27.8H212.928V31.8ZM201.728 58.6V62.6H204.392L205.419 60.1424L201.728 58.6ZM190.228 58.6L186.301 57.8381L185.377 62.6H190.228V58.6ZM195.428 35.8H212.928V27.8H195.428V35.8ZM209.237 30.2576L198.037 57.0576L205.419 60.1424L216.619 33.3424L209.237 30.2576ZM201.728 54.6H190.228V62.6H201.728V54.6ZM194.155 59.3619L199.355 32.5619L191.501 31.0381L186.301 57.8381L194.155 59.3619ZM275.673 65.6L279.163 67.5544L279.172 67.5398L279.18 67.525L275.673 65.6ZM267.073 73.7L265.188 70.1723L267.073 73.7ZM242.073 76.8V72.8H238.073V76.8H242.073ZM242.073 102V106H246.073V102H242.073ZM224.973 102H220.973V106H224.973V102ZM224.973 31.8V27.8H220.973V31.8H224.973ZM266.873 34.7L268.662 31.1223L266.873 34.7ZM242.073 45.6V41.6H238.073V45.6H242.073ZM242.073 63.2H238.073V67.2H242.073V63.2ZM274.473 54.4C274.473 57.8275 273.694 60.8938 272.167 63.675L279.18 67.525C281.386 63.5062 282.473 59.1059 282.473 54.4H274.473ZM272.183 63.6456C270.743 66.2178 268.482 68.4115 265.188 70.1723L268.959 77.2277C273.398 74.8552 276.871 71.6489 279.163 67.5544L272.183 63.6456ZM265.188 70.1723C262.052 71.8481 257.945 72.8 252.673 72.8V80.8C258.869 80.8 264.361 79.6852 268.959 77.2277L265.188 70.1723ZM252.673 72.8H242.073V80.8H252.673V72.8ZM238.073 76.8V102H246.073V76.8H238.073ZM242.073 98H224.973V106H242.073V98ZM228.973 102V31.8H220.973V102H228.973ZM224.973 35.8H252.673V27.8H224.973V35.8ZM252.673 35.8C257.83 35.8 261.913 36.6917 265.085 38.2777L268.662 31.1223C264.101 28.8416 258.717 27.8 252.673 27.8V35.8ZM265.085 38.2777C268.32 39.8954 270.596 42.038 272.096 44.6772L279.051 40.7228C276.685 36.562 273.16 33.3712 268.662 31.1223L265.085 38.2777ZM272.096 44.6772C273.646 47.4022 274.473 50.6049 274.473 54.4H282.473C282.473 49.3951 281.368 44.7978 279.051 40.7228L272.096 44.6772ZM251.373 67.2C255.188 67.2 258.808 66.311 261.441 63.7879L255.906 58.012C255.339 58.5557 254.092 59.2 251.373 59.2V67.2ZM261.441 63.7879C264.024 61.3127 265.073 57.986 265.073 54.4H257.073C257.073 56.414 256.523 57.4206 255.906 58.012L261.441 63.7879ZM265.073 54.4C265.073 50.814 264.024 47.4873 261.441 45.012L255.906 50.788C256.523 51.3794 257.073 52.386 257.073 54.4H265.073ZM261.441 45.012C258.808 42.489 255.188 41.6 251.373 41.6V49.6C254.092 49.6 255.339 50.2443 255.906 50.788L261.441 45.012ZM251.373 41.6H242.073V49.6H251.373V41.6ZM238.073 45.6V63.2H246.073V45.6H238.073ZM242.073 67.2H251.373V59.2H242.073V67.2ZM325.176 102L321.672 103.93L322.813 106H325.176V102ZM310.576 75.5L314.079 73.5698L312.939 71.5H310.576V75.5ZM306.476 75.5V71.5H302.476V75.5H306.476ZM306.476 102V106H310.476V102H306.476ZM289.376 102H285.376V106H289.376V102ZM289.376 31.8V27.8H285.376V31.8H289.376ZM332.176 34.7L330.387 38.2777L330.399 38.2838L330.411 38.2898L332.176 34.7ZM340.976 42.7L337.499 44.6772L337.507 44.6921L337.516 44.7069L340.976 42.7ZM339.876 66.4L336.641 64.0473L336.627 64.0667L336.613 64.0863L339.876 66.4ZM328.276 74.2L327.131 70.3673L322.261 71.8221L324.82 76.2139L328.276 74.2ZM344.476 102V106H351.436L347.932 99.9861L344.476 102ZM306.476 63.4H302.476V67.4H306.476V63.4ZM324.076 61.1L321.308 58.212L321.277 58.2415L321.247 58.2716L324.076 61.1ZM324.076 48.3L321.247 51.1284L321.277 51.1585L321.308 51.188L324.076 48.3ZM306.476 46V42H302.476V46H306.476ZM328.679 100.07L314.079 73.5698L307.072 77.4302L321.672 103.93L328.679 100.07ZM310.576 71.5H306.476V79.5H310.576V71.5ZM302.476 75.5V102H310.476V75.5H302.476ZM306.476 98H289.376V106H306.476V98ZM293.376 102V31.8H285.376V102H293.376ZM289.376 35.8H318.076V27.8H289.376V35.8ZM318.076 35.8C323.157 35.8 327.209 36.6887 330.387 38.2777L333.965 31.1223C329.409 28.8446 324.062 27.8 318.076 27.8V35.8ZM330.411 38.2898C333.715 39.9137 336.009 42.0567 337.499 44.6772L344.453 40.7228C342.076 36.5433 338.503 33.353 333.94 31.1102L330.411 38.2898ZM337.516 44.7069C339.07 47.3862 339.876 50.4185 339.876 53.9H347.876C347.876 49.1148 346.749 44.6804 344.436 40.6931L337.516 44.7069ZM339.876 53.9C339.876 57.7478 338.795 61.0855 336.641 64.0473L343.111 68.7527C346.29 64.3812 347.876 59.3855 347.876 53.9H339.876ZM336.613 64.0863C334.624 66.8917 331.579 69.0388 327.131 70.3673L329.421 78.0327C335.24 76.2945 339.928 73.2417 343.139 68.7137L336.613 64.0863ZM324.82 76.2139L341.02 104.014L347.932 99.9861L331.732 72.1861L324.82 76.2139ZM344.476 98H325.176V106H344.476V98ZM306.476 67.4H317.076V59.4H306.476V67.4ZM317.076 67.4C320.797 67.4 324.342 66.4909 326.904 63.9284L321.247 58.2716C320.743 58.7758 319.622 59.4 317.076 59.4V67.4ZM326.843 63.988C329.426 61.5127 330.476 58.186 330.476 54.6H322.476C322.476 56.614 321.925 57.6206 321.308 58.212L326.843 63.988ZM330.476 54.6C330.476 51.0816 329.388 47.8504 326.843 45.412L321.308 51.188C321.964 51.8163 322.476 52.785 322.476 54.6H330.476ZM326.904 45.4716C324.342 42.9091 320.797 42 317.076 42V50C319.622 50 320.743 50.6242 321.247 51.1284L326.904 45.4716ZM317.076 42H306.476V50H317.076V42ZM302.476 46V63.4H310.476V46H302.476ZM371.61 98.1L369.653 101.589L369.662 101.594L369.671 101.599L371.61 98.1ZM358.51 85.3L355.047 87.3025L355.062 87.3273L355.077 87.3518L358.51 85.3ZM358.51 48.2L355.077 46.1482L355.067 46.1637L355.058 46.1793L358.51 48.2ZM371.61 35.4L369.671 31.9014L369.662 31.9064L369.653 31.9114L371.61 35.4ZM407.91 35.4L405.953 38.8886L405.962 38.8936L405.971 38.8986L407.91 35.4ZM420.91 48.2L417.44 50.1891L417.449 50.205L417.458 50.2207L420.91 48.2ZM420.91 85.3L424.362 87.3207L424.368 87.3116L424.373 87.3025L420.91 85.3ZM407.91 98.1L409.867 101.589L407.91 98.1ZM403.21 81.5L400.253 78.8067L400.24 78.8212L400.226 78.8359L403.21 81.5ZM403.21 51.9L400.226 54.5641L400.251 54.5921L400.277 54.6198L403.21 51.9ZM376.21 51.8L373.277 49.0802L373.264 49.0947L373.25 49.1093L376.21 51.8ZM376.21 81.6L373.226 84.2641L373.251 84.2921L373.277 84.3198L376.21 81.6ZM389.81 98.7C383.858 98.7 378.463 97.3247 373.549 94.6014L369.671 101.599C375.824 105.009 382.562 106.7 389.81 106.7V98.7ZM373.567 94.6114C368.72 91.8922 364.858 88.1253 361.944 83.2482L355.077 87.3518C358.695 93.4081 363.567 98.1745 369.653 101.589L373.567 94.6114ZM361.973 83.2975C359.151 78.4179 357.71 72.9175 357.71 66.7H349.71C349.71 74.2158 351.469 81.1154 355.047 87.3025L361.973 83.2975ZM357.71 66.7C357.71 60.482 359.151 55.0233 361.962 50.2207L355.058 46.1793C351.469 52.31 349.71 59.1847 349.71 66.7H357.71ZM361.944 50.2518C364.858 45.3747 368.72 41.6078 373.567 38.8886L369.653 31.9114C363.567 35.3255 358.695 40.0919 355.077 46.1482L361.944 50.2518ZM373.549 38.8986C378.463 36.1753 383.858 34.8 389.81 34.8V26.8C382.562 26.8 375.824 28.4914 369.671 31.9014L373.549 38.8986ZM389.81 34.8C395.762 34.8 401.116 36.1752 405.953 38.8886L409.867 31.9114C403.771 28.4915 397.058 26.8 389.81 26.8V34.8ZM405.971 38.8986C410.869 41.6128 414.671 45.3586 417.44 50.1891L424.381 46.2109C420.883 40.108 416.018 35.3205 409.849 31.9014L405.971 38.8986ZM417.458 50.2207C420.269 55.0233 421.71 60.482 421.71 66.7H429.71C429.71 59.1847 427.951 52.31 424.362 46.1793L417.458 50.2207ZM421.71 66.7C421.71 72.9175 420.269 78.4179 417.448 83.2975L424.373 87.3025C427.951 81.1154 429.71 74.2158 429.71 66.7H421.71ZM417.458 83.2793C414.613 88.1393 410.793 91.8964 405.953 94.6114L409.867 101.589C415.961 98.1703 420.807 93.394 424.362 87.3207L417.458 83.2793ZM405.953 94.6114C401.116 97.3248 395.762 98.7 389.81 98.7V106.7C397.058 106.7 403.771 105.009 409.867 101.589L405.953 94.6114ZM389.81 91.1C396.399 91.1 402.007 88.8538 406.194 84.1641L400.226 78.8359C397.747 81.6129 394.422 83.1 389.81 83.1V91.1ZM406.168 84.1933C410.376 79.5725 412.31 73.6048 412.31 66.7H404.31C404.31 72.0618 402.845 75.9608 400.253 78.8067L406.168 84.1933ZM412.31 66.7C412.31 59.7447 410.384 53.7534 406.143 49.1802L400.277 54.6198C402.836 57.3799 404.31 61.2553 404.31 66.7H412.31ZM406.194 49.2359C402.007 44.5462 396.399 42.3 389.81 42.3V50.3C394.422 50.3 397.747 51.7871 400.226 54.5641L406.194 49.2359ZM389.81 42.3C383.194 42.3 377.538 44.4846 373.277 49.0802L379.143 54.5198C381.682 51.782 385.093 50.3 389.81 50.3V42.3ZM373.25 49.1093C369.084 53.6921 367.21 59.7114 367.21 66.7H375.21C375.21 61.1553 376.669 57.2413 379.17 54.4907L373.25 49.1093ZM367.21 66.7C367.21 73.6383 369.092 79.6338 373.226 84.2641L379.194 78.9359C376.661 76.0995 375.21 72.1617 375.21 66.7H367.21ZM373.277 84.3198C377.538 88.9154 383.194 91.1 389.81 91.1V83.1C385.093 83.1 381.682 81.618 379.143 78.8802L373.277 84.3198ZM470.023 122.9V126.9H474.023V122.9H470.023ZM440.023 122.9H436.023V126.9H440.023V122.9ZM440.023 109V105H436.023V109H440.023ZM454.023 109V113H458.023V109H454.023ZM454.023 24.5H458.023V20.5H454.023V24.5ZM440.023 24.5H436.023V28.5H440.023V24.5ZM440.023 10.7V6.7H436.023V10.7H440.023ZM470.023 10.7H474.023V6.7H470.023V10.7ZM470.023 118.9H440.023V126.9H470.023V118.9ZM444.023 122.9V109H436.023V122.9H444.023ZM440.023 113H454.023V105H440.023V113ZM458.023 109V24.5H450.023V109H458.023ZM454.023 20.5H440.023V28.5H454.023V20.5ZM444.023 24.5V10.7H436.023V24.5H444.023ZM440.023 14.7H470.023V6.7H440.023V14.7ZM466.023 10.7V122.9H474.023V10.7H466.023Z" fill="url(#paint0_linear_174_21)" mask="url(#path-1-outside-1_174_21)"/>
</g>
<defs>
<filter id="filter0_d_174_21" x="0.859375" y="0.699951" width="479.164" height="132.2" filterUnits="userSpaceOnUse" color-interpolation-filters="sRGB">
<feFlood flood-opacity="0" result="BackgroundImageFix"/>
<feColorMatrix in="SourceAlpha" type="matrix" values="0 0 0 0 0 0 0 0 0 0 0 0 0 0 0 0 0 0 127 0" result="hardAlpha"/>
<feOffset/>
<feGaussianBlur stdDeviation="5"/>
<feComposite in2="hardAlpha" operator="out"/>
<feColorMatrix type="matrix" values="0 0 0 0 1 0 0 0 0 1 0 0 0 0 1 0 0 0 0.4 0"/>
<feBlend mode="normal" in2="BackgroundImageFix" result="effect1_dropShadow_174_21"/>
<feBlend mode="normal" in="SourceGraphic" in2="effect1_dropShadow_174_21" result="shape"/>
</filter>
<linearGradient id="paint0_linear_174_21" x1="58" y1="-5" x2="394" y2="138" gradientUnits="userSpaceOnUse">
<stop offset="0.00699301" stop-color="white"/>
<stop offset="1" stop-color="#FE7B92"/>
</linearGradient>
</defs>
</svg>
